<svg xmlns="http://www.w3.org/2000/svg" viewBox="0 0 64 64" fill="none">
  <defs>
    <linearGradient id="bg" x1="0" y1="0" x2="64" y2="64" gradientUnits="userSpaceOnUse">
      <stop offset="0%" stop-color="#4FC3F7"/>
      <stop offset="100%" stop-color="#1976D2"/>
    </linearGradient>
  </defs>
  <rect width="64" height="64" rx="12" fill="#0A0A0A"/>
  <!-- Left organic hemisphere -->
  <path d="M30 14c-8 0-14 6-14 14v8c0 8 6 14 14 14V14z" stroke="url(#bg)" stroke-width="2.2" stroke-linecap="round"/>
  <path d="M22 24c2-1 3-1 4 0M22 32c2-1 4-1 5 0M22 40c2-1 3-1 4 0" stroke="url(#bg)" stroke-width="1.5" stroke-linecap="round" opacity="0.75"/>
  <!-- Right circuit hemisphere -->
  <path d="M34 14c8 0 14 6 14 14v8c0 8-6 14-14 14V14z" stroke="url(#bg)" stroke-width="2.2" stroke-linecap="round"/>
  <g stroke="url(#bg)" stroke-width="1.5" stroke-linecap="round">
    <path d="M38 22h4M38 30h6M38 38h4M38 46h6"/>
    <circle cx="44" cy="22" r="1.5" fill="url(#bg)"/>
    <circle cx="46" cy="30" r="1.5" fill="url(#bg)"/>
    <circle cx="44" cy="38" r="1.5" fill="url(#bg)"/>
    <circle cx="46" cy="46" r="1.5" fill="url(#bg)"/>
  </g>
  <!-- Central divider -->
  <line x1="32" y1="12" x2="32" y2="52" stroke="url(#bg)" stroke-width="1" opacity="0.45"/>
</svg>
